<?xml version="1.0" encoding="utf-8"?>
<!-- Generator: Adobe Illustrator 16.0.4, SVG Export Plug-In . SVG Version: 6.00 Build 0)  -->
<!DOCTYPE svg PUBLIC "-//W3C//DTD SVG 1.1//EN" "http://www.w3.org/Graphics/SVG/1.1/DTD/svg11.dtd">
<svg version="1.1" id="Layer_1" xmlns="http://www.w3.org/2000/svg" xmlns:xlink="http://www.w3.org/1999/xlink" x="0px" y="0px"
	 width="18px" height="14px" viewBox="0 0 18 14" enable-background="new 0 0 18 14" xml:space="preserve">
<g>
	<g>
		<path fill-rule="evenodd" clip-rule="evenodd" fill="#70AB37" d="M5.657,4.282C2.581,4.221,0.048,6.143,0,8.574
			c-0.016,0.847,0.271,1.642,0.779,2.322C1.655,12.036,0.7,14,0.7,14l2.822-1.233c0.609,0.195,1.271,0.31,1.964,0.322
			c3.076,0.062,5.61-1.859,5.657-4.293C11.188,6.365,8.734,4.344,5.657,4.282z M17.221,6.615L17.221,6.615
			C17.729,5.934,18.016,5.139,18,4.293c-0.049-2.432-2.582-4.354-5.658-4.291c-2.578,0.05-4.72,1.48-5.318,3.372
			c1.204,0.23,2.309,0.73,3.199,1.462c1.285,1.058,1.977,2.468,1.953,3.97c0.111,0.002,0.223,0.003,0.338,0
			c0.693-0.011,1.354-0.125,1.963-0.321l2.822,1.232C17.299,9.718,16.344,7.756,17.221,6.615z"/>
	</g>
</g>
<g>
</g>
<g>
</g>
<g>
</g>
<g>
</g>
<g>
</g>
<g>
</g>
<g>
</g>
<g>
</g>
<g>
</g>
<g>
</g>
<g>
</g>
<g>
</g>
<g>
</g>
<g>
</g>
<g>
</g>
</svg>
