<?xml version="1.0" encoding="utf-8"?>
<!-- Generator: Adobe Illustrator 16.0.4, SVG Export Plug-In . SVG Version: 6.00 Build 0)  -->
<!DOCTYPE svg PUBLIC "-//W3C//DTD SVG 1.1//EN" "http://www.w3.org/Graphics/SVG/1.1/DTD/svg11.dtd">
<svg version="1.1" id="Layer_1" xmlns="http://www.w3.org/2000/svg" xmlns:xlink="http://www.w3.org/1999/xlink" x="0px" y="0px"
	 width="16px" height="13px" viewBox="0 0 16 13" enable-background="new 0 0 16 13" xml:space="preserve">
<g>
	<polygon fill="#797E82" points="6.473,11.716 4.375,11.147 4.375,9.282 3.209,8.919 3.209,11.601 3.641,12.171 6.701,13 
		7.404,12.618 8.129,10.451 7.014,10.104 	"/>
	<path fill="#797E82" d="M13.721,0.002c-0.008,0-0.018-0.001-0.027-0.001L13.68,0c-0.006,0-0.012,0.001-0.016,0.001
		c-0.01,0-0.02,0-0.027,0.001c-0.203,0.007-0.393,0.065-0.568,0.165L0.975,3.933C0.287,4.021,0,4.508,0,5.555
		c0,1.046,0.287,1.534,0.975,1.621l12.094,3.767c0.188,0.107,0.393,0.168,0.611,0.168l0,0l0,0l0,0c1.523,0,2.32-2.795,2.32-5.556
		C16,2.819,15.217,0.053,13.721,0.002z M13.68,10.096c-0.447,0-1.316-1.603-1.316-4.541c0-2.938,0.869-4.541,1.316-4.541
		s1.316,1.603,1.316,4.541C14.996,8.493,14.127,10.096,13.68,10.096z"/>
</g>
<g>
</g>
<g>
</g>
<g>
</g>
<g>
</g>
<g>
</g>
<g>
</g>
<g>
</g>
<g>
</g>
<g>
</g>
<g>
</g>
<g>
</g>
<g>
</g>
<g>
</g>
<g>
</g>
<g>
</g>
</svg>
