<?xml version="1.0" encoding="utf-8"?>
<!-- Generator: Adobe Illustrator 16.0.4, SVG Export Plug-In . SVG Version: 6.00 Build 0)  -->
<!DOCTYPE svg PUBLIC "-//W3C//DTD SVG 1.1//EN" "http://www.w3.org/Graphics/SVG/1.1/DTD/svg11.dtd">
<svg version="1.1" id="Layer_1" xmlns="http://www.w3.org/2000/svg" xmlns:xlink="http://www.w3.org/1999/xlink" x="0px" y="0px"
	 width="18px" height="16px" viewBox="0 0 18 16" enable-background="new 0 0 18 16" xml:space="preserve">
<path fill="#FC8B28" d="M3.953,6.985c0.363,0,0.699-0.113,0.977-0.303l2.781,1.653C7.707,8.381,7.705,8.427,7.705,8.474
	c0,0.945,0.771,1.713,1.723,1.713c0.953,0,1.725-0.768,1.725-1.713c0-0.214-0.041-0.417-0.113-0.606l3.225-3.437l1.895,1.626
	L17.305,0l-5.869,2.001l1.676,1.438L9.926,6.834C9.768,6.788,9.602,6.762,9.428,6.762c-0.344,0-0.664,0.102-0.934,0.275L5.672,5.359
	C5.674,5.33,5.678,5.302,5.678,5.272c0-0.945-0.773-1.712-1.725-1.712C3,3.561,2.229,4.327,2.229,5.272
	c0,0.164,0.025,0.321,0.068,0.471L0,7.84v2.056l3.32-3.031C3.518,6.941,3.729,6.985,3.953,6.985z M3.953,13.13
	c0.475,0,0.906-0.192,1.219-0.502l4.953,1.833C10.213,15.325,10.947,16,11.84,16c0.953,0,1.725-0.767,1.725-1.712
	c0-0.231-0.047-0.451-0.131-0.652l2.904-3.277l1.121,0.859L18,7.102l-3.871,1.564l1,0.767l-2.84,3.204
	c-0.145-0.038-0.293-0.061-0.449-0.061c-0.457,0-0.873,0.179-1.182,0.468l-4.998-1.85c-0.109-0.841-0.832-1.489-1.707-1.489
	c-0.953,0-1.725,0.767-1.725,1.712c0,0.047,0.004,0.094,0.008,0.14L0,12.923V14.7l3.02-1.845C3.289,13.028,3.609,13.13,3.953,13.13z
	"/>
<g>
</g>
<g>
</g>
<g>
</g>
<g>
</g>
<g>
</g>
<g>
</g>
<g>
</g>
<g>
</g>
<g>
</g>
<g>
</g>
<g>
</g>
<g>
</g>
<g>
</g>
<g>
</g>
<g>
</g>
</svg>
