<?xml version="1.0" encoding="utf-8"?>
<!-- Generator: Adobe Illustrator 16.0.4, SVG Export Plug-In . SVG Version: 6.00 Build 0)  -->
<!DOCTYPE svg PUBLIC "-//W3C//DTD SVG 1.1//EN" "http://www.w3.org/Graphics/SVG/1.1/DTD/svg11.dtd">
<svg version="1.1" id="Layer_1" xmlns="http://www.w3.org/2000/svg" xmlns:xlink="http://www.w3.org/1999/xlink" x="0px" y="0px"
	 width="16px" height="16px" viewBox="0 0 16 16" enable-background="new 0 0 16 16" xml:space="preserve">
<g>
	<g>
		<path fill="#797E82" d="M11.443,8c0,1.904-1.539,3.446-3.443,3.446c-1.906,0-3.443-1.542-3.443-3.446
			c0-1.904,1.537-3.446,3.443-3.446C9.904,4.554,11.443,6.096,11.443,8z"/>
	</g>
	<g>
		<path fill="#797E82" d="M0,8c0.002-4.418,3.582-7.998,8-8l0,0c4.417,0.002,7.998,3.582,8,8l0,0c-0.002,4.418-3.583,7.998-8,8l0,0
			C3.582,15.998,0.002,12.418,0,8L0,8z M4.165,4.165C3.178,5.151,2.573,6.496,2.573,8l0,0c0,1.504,0.604,2.85,1.592,3.836l0,0
			c0.981,0.982,2.331,1.59,3.835,1.59l0,0c1.504,0,2.853-0.607,3.834-1.59l0,0c0.987-0.986,1.59-2.332,1.592-3.836l0,0
			c-0.002-1.504-0.604-2.849-1.592-3.835l0,0C10.853,3.181,9.504,2.574,8,2.574l0,0C6.496,2.574,5.146,3.181,4.165,4.165
			L4.165,4.165z"/>
	</g>
</g>
<g>
</g>
<g>
</g>
<g>
</g>
<g>
</g>
<g>
</g>
<g>
</g>
<g>
</g>
<g>
</g>
<g>
</g>
<g>
</g>
<g>
</g>
<g>
</g>
<g>
</g>
<g>
</g>
<g>
</g>
</svg>
