<?xml version="1.0" encoding="utf-8"?>
<!-- Generator: Adobe Illustrator 16.0.4, SVG Export Plug-In . SVG Version: 6.00 Build 0)  -->
<!DOCTYPE svg PUBLIC "-//W3C//DTD SVG 1.1//EN" "http://www.w3.org/Graphics/SVG/1.1/DTD/svg11.dtd">
<svg version="1.1" id="Layer_1" xmlns="http://www.w3.org/2000/svg" xmlns:xlink="http://www.w3.org/1999/xlink" x="0px" y="0px"
	 width="14px" height="16px" viewBox="0 0 14 16" enable-background="new 0 0 14 16" xml:space="preserve">
<g>
	<g>
		<path fill="#797E82" d="M7.062,11.082c-1.031,0.002-1.924-0.256-2.703-1.035l1.75-1.797c0.303,0.303,0.564,0.336,0.953,0.337l0,0
			c0.406-0.001,0.795-0.148,1.098-0.45l0,0l2.893-2.893c0.303-0.304,0.449-0.69,0.451-1.09l0,0
			c-0.002-0.396-0.148-0.782-0.451-1.085l0,0L10.93,2.946c-0.303-0.303-0.689-0.449-1.086-0.451l0,0
			C9.445,2.497,9.059,2.644,8.756,2.946l0,0L7.566,4.136c-0.486,0.487-1.277,0.487-1.766,0l0,0c-0.486-0.487-0.486-1.277,0-1.765
			l0,0L6.99,1.182C7.775,0.396,8.814-0.001,9.844,0l0,0c1.027-0.001,2.066,0.396,2.852,1.182l0,0l0.123,0.123
			C13.602,2.087,14,3.126,14,4.154l0,0c0,1.027-0.396,2.068-1.182,2.854l0,0L9.926,9.901c-0.789,0.79-1.834,1.181-2.857,1.181l0,0
			H7.062L7.062,11.082z"/>
	</g>
	<g>
		<path fill="#797E82" d="M4.145,16c-1.029,0.001-2.062-0.402-2.84-1.182l0,0l-0.123-0.123C0.395,13.909-0.002,12.867,0,11.84l0,0
			c-0.002-1.028,0.398-2.066,1.182-2.848l0,0l2.893-2.893c0.783-0.786,1.824-1.183,2.852-1.182l0,0
			c0.807-0.001,1.619,0.243,2.311,0.727l0,0c0.115,0.058,0.357,0.27,0.357,0.27L7.75,7.75C7.469,7.469,7.118,7.414,6.926,7.413l0,0
			c-0.398,0.001-0.783,0.147-1.088,0.45l0,0l-2.893,2.893c-0.303,0.305-0.449,0.689-0.449,1.084l0,0c0,0.4,0.146,0.787,0.449,1.092
			l0,0l0.123,0.122c0.305,0.304,0.688,0.45,1.076,0.45l0,0c0.408-0.002,0.795-0.148,1.1-0.45l0,0l1.246-1.246
			c0.486-0.487,1.277-0.487,1.764,0l0,0c0.488,0.487,0.488,1.277,0,1.765l0,0l-1.246,1.246C6.219,15.608,5.176,16,4.15,16l0,0H4.145
			L4.145,16z"/>
	</g>
</g>
<g>
</g>
<g>
</g>
<g>
</g>
<g>
</g>
<g>
</g>
<g>
</g>
<g>
</g>
<g>
</g>
<g>
</g>
<g>
</g>
<g>
</g>
<g>
</g>
<g>
</g>
<g>
</g>
<g>
</g>
</svg>
