<?xml version="1.0" encoding="utf-8"?>
<!-- Generator: Adobe Illustrator 16.0.4, SVG Export Plug-In . SVG Version: 6.00 Build 0)  -->
<!DOCTYPE svg PUBLIC "-//W3C//DTD SVG 1.1//EN" "http://www.w3.org/Graphics/SVG/1.1/DTD/svg11.dtd">
<svg version="1.1" id="Layer_1" xmlns="http://www.w3.org/2000/svg" xmlns:xlink="http://www.w3.org/1999/xlink" x="0px" y="0px"
	 width="18px" height="18px" viewBox="0 0 18 18" enable-background="new 0 0 18 18" xml:space="preserve">
<path fill="#F7931E" d="M10,2V0H8v2L0,2.083v1.833L1,4v10h6l-3.447,3.21L4.2,18l4.796-3.926h0.032L13.822,18l0.647-0.791L11,14h6V4
	h1V2.083L10,2z M16,13H2V4h14V13z M5.462,10.754V8.097h2.656c0-1.466-1.188-2.655-2.656-2.655c-1.465,0-2.653,1.189-2.653,2.655
	S3.997,10.754,5.462,10.754z M6.21,11.477c1.464,0,2.654-1.189,2.654-2.654H6.21V11.477z M15,6h-5v1h5V6z M15,8h-5v1h5V8z M15,10h-5
	v1h5V10z"/>
<g>
</g>
<g>
</g>
<g>
</g>
<g>
</g>
<g>
</g>
<g>
</g>
<g>
</g>
<g>
</g>
<g>
</g>
<g>
</g>
<g>
</g>
<g>
</g>
<g>
</g>
<g>
</g>
<g>
</g>
</svg>
